<svg xmlns="http://www.w3.org/2000/svg" width="1690.9996299037239" height="300.0" viewBox="0 0 1690.9996299037239 300.0">
  <g transform="translate(0.0 40.0)">
    <path d="M 44.64 250.00 L 44.64 50.00 L 79.28 30.00 L 79.28 230.00 L 44.64 250.00" stroke="#000" stroke-linecap="round" stroke-linejoin="round" stroke-width="1" fill="rgb(218,218,219)" />
      <path d="M 44.64 250.00 L 10.00 230.00 L 10.00 30.00 L 44.64 50.00 L 44.64 250.00" stroke="#000" stroke-linecap="round" stroke-linejoin="round" stroke-width="1" fill="rgb(65, 66, 68)" />
      <path d="M 44.64 50.00 L 10.00 30.00 L 44.64 10.00 L 79.28 30.00 L 44.64 50.00" stroke="#000" stroke-linecap="round" stroke-linejoin="round" stroke-width="1" fill="rgb(155, 156, 157)" />
  </g>
  <g transform="translate(109.28203230275508 0.0)">
    <path d="M 44.64 290.00 L 44.64 250.00 L 113.92 210.00 L 113.92 170.00 L 44.64 210.00 L 44.64 90.00 L 148.56 30.00 L 148.56 70.00 L 79.28 110.00 L 79.28 150.00 L 148.56 110.00 L 148.56 230.00 L 44.64 290.00" stroke="#000" stroke-linecap="round" stroke-linejoin="round" stroke-width="1" fill="rgb(218,218,219)" />
      <path d="M 44.64 290.00 L 10.00 270.00 L 10.00 230.00 L 44.64 250.00 L 44.64 290.00 M 44.64 210.00 L 10.00 190.00 L 10.00 70.00 L 44.64 90.00 L 44.64 210.00 M 113.92 210.00 L 79.28 190.00 L 113.92 170.00 L 113.92 210.00" stroke="#000" stroke-linecap="round" stroke-linejoin="round" stroke-width="1" fill="rgb(65, 66, 68)" />
      <path d="M 44.64 250.00 L 10.00 230.00 L 79.28 190.00 L 113.92 210.00 L 44.64 250.00 M 79.28 150.00 L 79.28 110.00 L 113.92 90.00 L 148.56 110.00 L 79.28 150.00 M 44.64 90.00 L 10.00 70.00 L 113.92 10.00 L 148.56 30.00 L 44.64 90.00" stroke="#000" stroke-linecap="round" stroke-linejoin="round" stroke-width="1" fill="rgb(155, 156, 157)" />
  </g>
  <g transform="translate(287.8460969082653 0.0)">
    <path d="M 44.64 250.00 L 44.64 130.00 L 79.28 110.00 L 79.28 230.00 L 44.64 250.00 M 79.28 110.00 L 79.28 70.00 L 148.56 30.00 L 148.56 70.00 L 79.28 110.00 M 148.56 190.00 L 148.56 70.00 L 183.21 50.00 L 183.21 170.00 L 148.56 190.00 M 79.28 270.00 L 79.28 230.00 L 148.56 190.00 L 148.56 230.00 L 79.28 270.00" stroke="#000" stroke-linecap="round" stroke-linejoin="round" stroke-width="1" fill="rgb(218,218,219)" />
      <path d="M 79.28 270.00 L 44.64 250.00 L 79.28 230.00 L 79.28 270.00 M 44.64 250.00 L 10.00 230.00 L 10.00 110.00 L 44.64 130.00 L 44.64 250.00 M 79.28 110.00 L 44.64 90.00 L 44.64 50.00 L 79.28 70.00 L 79.28 110.00 M 148.56 190.00 L 113.92 170.00 L 113.92 90.00 L 148.56 70.00 L 148.56 190.00" stroke="#000" stroke-linecap="round" stroke-linejoin="round" stroke-width="1" fill="rgb(65, 66, 68)" />
      <path d="M 79.28 230.00 L 79.28 190.00 L 113.92 170.00 L 148.56 190.00 L 79.28 230.00 M 44.64 130.00 L 10.00 110.00 L 44.64 90.00 L 79.28 110.00 L 44.64 130.00 M 79.28 70.00 L 44.64 50.00 L 113.92 10.00 L 148.56 30.00 L 79.28 70.00 M 148.56 70.00 L 148.56 30.00 L 183.21 50.00 L 148.56 70.00" stroke="#000" stroke-linecap="round" stroke-linejoin="round" stroke-width="1" fill="rgb(155, 156, 157)" />
  </g>
  <g transform="translate(501.051177665153 0.0)">
    <path d="M 44.64 290.00 L 44.64 90.00 L 148.56 30.00 L 148.56 70.00 L 79.28 110.00 L 79.28 230.00 L 148.56 190.00 L 148.56 230.00 L 44.64 290.00 M 148.56 190.00 L 148.56 70.00 L 183.21 50.00 L 183.21 170.00 L 148.56 190.00" stroke="#000" stroke-linecap="round" stroke-linejoin="round" stroke-width="1" fill="rgb(218,218,219)" />
      <path d="M 44.64 290.00 L 10.00 270.00 L 10.00 70.00 L 44.64 90.00 L 44.64 290.00 M 148.56 190.00 L 113.92 170.00 L 113.92 90.00 L 148.56 70.00 L 148.56 190.00" stroke="#000" stroke-linecap="round" stroke-linejoin="round" stroke-width="1" fill="rgb(65, 66, 68)" />
      <path d="M 79.28 230.00 L 79.28 190.00 L 113.92 170.00 L 148.56 190.00 L 79.28 230.00 M 44.64 90.00 L 10.00 70.00 L 113.92 10.00 L 148.56 30.00 L 44.64 90.00 M 148.56 70.00 L 148.56 30.00 L 183.21 50.00 L 148.56 70.00" stroke="#000" stroke-linecap="round" stroke-linejoin="round" stroke-width="1" fill="rgb(155, 156, 157)" />
  </g>
  <g transform="translate(714.2562584220407 0.0)">
    <path d="M 44.64 250.00 L 44.64 130.00 L 79.28 110.00 L 79.28 230.00 L 44.64 250.00 M 79.28 110.00 L 79.28 70.00 L 148.56 30.00 L 148.56 70.00 L 79.28 110.00 M 148.56 190.00 L 148.56 70.00 L 183.21 50.00 L 183.21 170.00 L 148.56 190.00 M 79.28 270.00 L 79.28 230.00 L 148.56 190.00 L 148.56 230.00 L 79.28 270.00" stroke="#000" stroke-linecap="round" stroke-linejoin="round" stroke-width="1" fill="rgb(218,218,219)" />
      <path d="M 79.28 270.00 L 44.64 250.00 L 79.28 230.00 L 79.28 270.00 M 44.64 250.00 L 10.00 230.00 L 10.00 110.00 L 44.64 130.00 L 44.64 250.00 M 79.28 110.00 L 44.64 90.00 L 44.64 50.00 L 79.28 70.00 L 79.28 110.00 M 148.56 190.00 L 113.92 170.00 L 113.92 90.00 L 148.56 70.00 L 148.56 190.00" stroke="#000" stroke-linecap="round" stroke-linejoin="round" stroke-width="1" fill="rgb(65, 66, 68)" />
      <path d="M 79.28 230.00 L 79.28 190.00 L 113.92 170.00 L 148.56 190.00 L 79.28 230.00 M 44.64 130.00 L 10.00 110.00 L 44.64 90.00 L 79.28 110.00 L 44.64 130.00 M 79.28 70.00 L 44.64 50.00 L 113.92 10.00 L 148.56 30.00 L 79.28 70.00 M 148.56 70.00 L 148.56 30.00 L 183.21 50.00 L 148.56 70.00" stroke="#000" stroke-linecap="round" stroke-linejoin="round" stroke-width="1" fill="rgb(155, 156, 157)" />
  </g>
  <g transform="translate(927.4613391789284 0.0)">
    <path d="M 44.64 250.00 L 44.64 130.00 L 79.28 110.00 L 79.28 230.00 L 44.64 250.00 M 79.28 110.00 L 79.28 70.00 L 148.56 30.00 L 148.56 70.00 L 79.28 110.00 M 148.56 190.00 L 148.56 70.00 L 183.21 50.00 L 183.21 170.00 L 148.56 190.00 M 79.28 270.00 L 79.28 230.00 L 148.56 190.00 L 148.56 230.00 L 79.28 270.00" stroke="#000" stroke-linecap="round" stroke-linejoin="round" stroke-width="1" fill="rgb(218,218,219)" />
      <path d="M 79.28 270.00 L 44.64 250.00 L 79.28 230.00 L 79.28 270.00 M 44.64 250.00 L 10.00 230.00 L 10.00 110.00 L 44.64 130.00 L 44.64 250.00 M 79.28 110.00 L 44.64 90.00 L 44.64 50.00 L 79.28 70.00 L 79.28 110.00 M 148.56 190.00 L 113.92 170.00 L 113.92 90.00 L 148.56 70.00 L 148.56 190.00" stroke="#000" stroke-linecap="round" stroke-linejoin="round" stroke-width="1" fill="rgb(65, 66, 68)" />
      <path d="M 79.28 230.00 L 79.28 190.00 L 113.92 170.00 L 148.56 190.00 L 79.28 230.00 M 44.64 130.00 L 10.00 110.00 L 44.64 90.00 L 79.28 110.00 L 44.64 130.00 M 79.28 70.00 L 44.64 50.00 L 113.92 10.00 L 148.56 30.00 L 79.28 70.00 M 148.56 70.00 L 148.56 30.00 L 183.21 50.00 L 148.56 70.00" stroke="#000" stroke-linecap="round" stroke-linejoin="round" stroke-width="1" fill="rgb(155, 156, 157)" />
  </g>
  <g transform="translate(1140.666419935816 0.0)">
    <path d="M 44.64 290.00 L 44.64 90.00 L 148.56 30.00 L 148.56 70.00 L 79.28 110.00 L 79.28 230.00 L 148.56 190.00 L 148.56 230.00 L 44.64 290.00 M 148.56 190.00 L 148.56 70.00 L 183.21 50.00 L 183.21 170.00 L 148.56 190.00" stroke="#000" stroke-linecap="round" stroke-linejoin="round" stroke-width="1" fill="rgb(218,218,219)" />
      <path d="M 44.64 290.00 L 10.00 270.00 L 10.00 70.00 L 44.64 90.00 L 44.64 290.00 M 148.56 190.00 L 113.92 170.00 L 113.92 90.00 L 148.56 70.00 L 148.56 190.00" stroke="#000" stroke-linecap="round" stroke-linejoin="round" stroke-width="1" fill="rgb(65, 66, 68)" />
      <path d="M 79.28 230.00 L 79.28 190.00 L 113.92 170.00 L 148.56 190.00 L 79.28 230.00 M 44.64 90.00 L 10.00 70.00 L 113.92 10.00 L 148.56 30.00 L 44.64 90.00 M 148.56 70.00 L 148.56 30.00 L 183.21 50.00 L 148.56 70.00" stroke="#000" stroke-linecap="round" stroke-linejoin="round" stroke-width="1" fill="rgb(155, 156, 157)" />
  </g>
  <g transform="translate(1353.8715006927036 40.0)">
    <path d="M 44.64 250.00 L 44.64 50.00 L 79.28 30.00 L 79.28 190.00 L 148.56 150.00 L 148.56 190.00 L 44.64 250.00" stroke="#000" stroke-linecap="round" stroke-linejoin="round" stroke-width="1" fill="rgb(218,218,219)" />
      <path d="M 44.64 250.00 L 10.00 230.00 L 10.00 30.00 L 44.64 50.00 L 44.64 250.00" stroke="#000" stroke-linecap="round" stroke-linejoin="round" stroke-width="1" fill="rgb(65, 66, 68)" />
      <path d="M 79.28 190.00 L 79.28 150.00 L 113.92 130.00 L 148.56 150.00 L 79.28 190.00 M 44.64 50.00 L 10.00 30.00 L 44.64 10.00 L 79.28 30.00 L 44.64 50.00" stroke="#000" stroke-linecap="round" stroke-linejoin="round" stroke-width="1" fill="rgb(155, 156, 157)" />
  </g>
  <g transform="translate(1532.4355652982138 0.0)">
    <path d="M 44.64 290.00 L 44.64 90.00 L 148.56 30.00 L 148.56 70.00 L 79.28 110.00 L 79.28 150.00 L 113.92 130.00 L 113.92 170.00 L 79.28 190.00 L 79.28 230.00 L 148.56 190.00 L 148.56 230.00 L 44.64 290.00" stroke="#000" stroke-linecap="round" stroke-linejoin="round" stroke-width="1" fill="rgb(218,218,219)" />
      <path d="M 44.64 290.00 L 10.00 270.00 L 10.00 70.00 L 44.64 90.00 L 44.64 290.00" stroke="#000" stroke-linecap="round" stroke-linejoin="round" stroke-width="1" fill="rgb(65, 66, 68)" />
      <path d="M 44.64 90.00 L 10.00 70.00 L 113.92 10.00 L 148.56 30.00 L 44.64 90.00 M 79.28 150.00 L 79.28 110.00 L 113.92 130.00 L 79.28 150.00 M 79.28 230.00 L 79.28 190.00 L 113.92 170.00 L 148.56 190.00 L 79.28 230.00" stroke="#000" stroke-linecap="round" stroke-linejoin="round" stroke-width="1" fill="rgb(155, 156, 157)" />
  </g>
</svg>
