<svg data-iso-scale="20" data-iso-padding="10" data-iso-origin-x="217.84609690826525" data-iso-origin-y="250" xmlns="http://www.w3.org/2000/svg" width="500" height="540" viewBox="0 -10 500 620">
  <path stroke="rgb(155, 156, 157)" d="M 217.85 250.00 L 391.05 150.00 L 373.73 140.00 M 391.05 150.00 L 391.05 170.00 M 217.85 250.00 L 217.85 50.00 L 200.53 60.00 M 217.85 50.00 L 235.17 60.00 M 217.85 250.00 L 44.64 150.00 L 61.96 140.00 M 44.64 150.00 L 44.64 170.00 M 217.85 250.00 L 44.64 350.00 L 44.64 330.00 M 44.64 350.00 L 61.96 360.00 M 217.85 250.00 L 217.85 450.00 L 200.53 440.00 M 217.85 450.00 L 235.17 440.00 M 217.85 250.00 L 391.05 350.00 L 391.05 330.00 M 391.05 350.00 L 373.73 360.00" stroke-linecap="round" stroke-linejoin="round" stroke-width="5" fill="none" />
  <text x="217.85" y="20" font-size="32" fill="rgb(155, 156, 157)" text-anchor="middle" dominant-baseline="auto">N</text>
  <text x="417.03" y="135" font-size="32" fill="rgb(155, 156, 157)" text-anchor="start" dominant-baseline="auto">NE</text>
  <text x="417.03" y="365" font-size="32" fill="rgb(155, 156, 157)" text-anchor="start" dominant-baseline="hanging">SE</text>
  <text x="217.85" y="480" font-size="32" fill="rgb(155, 156, 157)" text-anchor="middle" dominant-baseline="hanging">S</text>
  <text x="18.66" y="365" font-size="32" fill="rgb(155, 156, 157)" text-anchor="end" dominant-baseline="hanging">SW</text>
  <text x="18.66" y="135" font-size="32" fill="rgb(155, 156, 157)" text-anchor="end" dominant-baseline="auto">NW</text>
</svg>
